<svg width="125" height="39" viewBox="0 0 125 39" fill="none" xmlns="http://www.w3.org/2000/svg">
<g id="baloons" clip-path="url(#clip0_1207_22116)">
<path id="Vector" d="M123.801 24.7737C123.801 32.0381 112.616 37.9261 98.8166 37.9261C89.086 37.9261 80.6567 34.9985 76.5305 30.7247C74.2007 34.1724 67.9505 36.6405 60.6023 36.6405C55.0792 36.6405 49.781 34.4583 47.389 31.9701C47.389 31.9701 41.9856 36.7991 31.8436 36.4453C31.8436 36.4453 37.369 32.5481 37.9335 29.9264C21.6681 31.8819 12.2126 25.3933 20.0774 18.6251C9.45226 17.9917 1.19515 13.2445 1.19515 7.48112C1.19515 4.59629 3.26421 1.96456 6.6656 -0.0224609" stroke="#908F8F" stroke-width="2" stroke-linejoin="round"/>
</g>
<defs>
<clipPath id="clip0_1207_22116">
<rect width="125" height="39" fill="white" transform="matrix(-1 0 0 1 125 0)"/>
</clipPath>
</defs>
</svg>
